<svg width="2549" height="2388" xmlns="http://www.w3.org/2000/svg" xmlns:xlink="http://www.w3.org/1999/xlink" xml:space="preserve" overflow="hidden"><g transform="translate(-948 -41)"><g><path d="M2333.5 617.182C2333.5 521.26 2411.26 443.5 2507.18 443.5L3201.89 443.5C3297.81 443.5 3375.57 521.26 3375.57 617.182L3375.57 1847.82C3375.57 1943.74 3297.81 2021.5 3201.89 2021.5L2507.18 2021.5C2411.26 2021.5 2333.5 1943.74 2333.5 1847.82Z" stroke="#91ADB9" stroke-width="9.16667" stroke-linecap="butt" stroke-linejoin="miter" stroke-miterlimit="8" stroke-opacity="1" fill="#E3EBEF" fill-rule="evenodd" fill-opacity="1"/><path d="M957.5 617.182C957.5 521.26 1035.26 443.5 1131.18 443.5L1825.89 443.5C1921.81 443.5 1999.57 521.26 1999.57 617.182L1999.57 1847.82C1999.57 1943.74 1921.81 2021.5 1825.89 2021.5L1131.18 2021.5C1035.26 2021.5 957.5 1943.74 957.5 1847.82Z" stroke="#91ADB9" stroke-width="9.16667" stroke-linecap="butt" stroke-linejoin="miter" stroke-miterlimit="8" stroke-opacity="1" fill="#E3EBEF" fill-rule="evenodd" fill-opacity="1"/><path d="M1047.5 102.001C1047.5 73.0055 1071.01 49.5 1100 49.5L1847 49.5C1875.99 49.5 1899.5 73.0055 1899.5 102.001L1899.5 311.999C1899.5 340.994 1875.99 364.5 1847 364.5L1100 364.5C1071.01 364.5 1047.5 340.994 1047.5 311.999Z" stroke="#808080" stroke-width="9.16667" stroke-linecap="butt" stroke-linejoin="miter" stroke-miterlimit="8" stroke-opacity="1" fill="#B24745" fill-rule="evenodd" fill-opacity="0.2"/><text fill="#3B3838" fill-opacity="1" font-family="Arial,Arial_MSFontService,sans-serif" font-style="normal" font-variant="normal" font-weight="400" font-stretch="normal" font-size="69" text-anchor="start" direction="ltr" writing-mode="lr-tb" unicode-bidi="normal" text-decoration="none" transform="matrix(1 0 0 1 1120.31 191)">Define hyperparameter </text><text fill="#3B3838" fill-opacity="1" font-family="Arial,Arial_MSFontService,sans-serif" font-style="normal" font-variant="normal" font-weight="400" font-stretch="normal" font-size="69" text-anchor="start" direction="ltr" writing-mode="lr-tb" unicode-bidi="normal" text-decoration="none" transform="matrix(1 0 0 1 1380.69 273)">s</text><text fill="#3B3838" fill-opacity="1" font-family="Arial,Arial_MSFontService,sans-serif" font-style="normal" font-variant="normal" font-weight="400" font-stretch="normal" font-size="69" text-anchor="start" direction="ltr" writing-mode="lr-tb" unicode-bidi="normal" text-decoration="none" transform="matrix(1 0 0 1 1415.06 273)">pace </text><path d="M1047.5 608.168C1047.5 579.08 1071.08 555.5 1100.17 555.5L1846.83 555.5C1875.92 555.5 1899.5 579.08 1899.5 608.168L1899.5 818.832C1899.5 847.92 1875.92 871.5 1846.83 871.5L1100.17 871.5C1071.08 871.5 1047.5 847.92 1047.5 818.832Z" stroke="#808080" stroke-width="9.16667" stroke-linecap="butt" stroke-linejoin="miter" stroke-miterlimit="8" stroke-opacity="1" fill="#FFFFFF" fill-rule="evenodd" fill-opacity="1"/><text fill="#3B3838" fill-opacity="1" font-family="Arial,Arial_MSFontService,sans-serif" font-style="normal" font-variant="normal" font-weight="400" font-stretch="normal" font-size="69" text-anchor="start" direction="ltr" writing-mode="lr-tb" unicode-bidi="normal" text-decoration="none" transform="matrix(1 0 0 1 1121.22 739)">Initialize TPE </text><text fill="#3B3838" fill-opacity="1" font-family="Arial,Arial_MSFontService,sans-serif" font-style="normal" font-variant="normal" font-weight="400" font-stretch="normal" font-size="69" text-anchor="start" direction="ltr" writing-mode="lr-tb" unicode-bidi="normal" text-decoration="none" transform="matrix(1 0 0 1 1540.5 739)">algorithm</text><path d="M1047.5 1127C1047.5 1098.01 1071.01 1074.5 1100 1074.5L1847 1074.5C1875.99 1074.5 1899.5 1098.01 1899.5 1127L1899.5 1337C1899.5 1365.99 1875.99 1389.5 1847 1389.5L1100 1389.5C1071.01 1389.5 1047.5 1365.99 1047.5 1337Z" stroke="#808080" stroke-width="9.16667" stroke-linecap="butt" stroke-linejoin="miter" stroke-miterlimit="8" stroke-opacity="1" fill="#FFFFFF" fill-rule="evenodd" fill-opacity="1"/><text fill="#3B3838" fill-opacity="1" font-family="Arial,Arial_MSFontService,sans-serif" font-style="normal" font-variant="normal" font-weight="400" font-stretch="normal" font-size="69" text-anchor="start" direction="ltr" writing-mode="lr-tb" unicode-bidi="normal" text-decoration="none" transform="matrix(1 0 0 1 1250.36 1216)">Evaluate initial </text><text fill="#3B3838" fill-opacity="1" font-family="Arial,Arial_MSFontService,sans-serif" font-style="normal" font-variant="normal" font-weight="400" font-stretch="normal" font-size="69" text-anchor="start" direction="ltr" writing-mode="lr-tb" unicode-bidi="normal" text-decoration="none" transform="matrix(1 0 0 1 1258.09 1298)">configurations</text><path d="M1047.5 1643C1047.5 1614.01 1071.01 1590.5 1100 1590.5L1847 1590.5C1875.99 1590.5 1899.5 1614.01 1899.5 1643L1899.5 1853C1899.5 1881.99 1875.99 1905.5 1847 1905.5L1100 1905.5C1071.01 1905.5 1047.5 1881.99 1047.5 1853Z" stroke="#808080" stroke-width="9.16667" stroke-linecap="butt" stroke-linejoin="miter" stroke-miterlimit="8" stroke-opacity="1" fill="#FFFFFF" fill-rule="evenodd" fill-opacity="1"/><text fill="#3B3838" fill-opacity="1" font-family="Arial,Arial_MSFontService,sans-serif" font-style="normal" font-variant="normal" font-weight="400" font-stretch="normal" font-size="69" text-anchor="start" direction="ltr" writing-mode="lr-tb" unicode-bidi="normal" text-decoration="none" transform="matrix(1 0 0 1 1194.79 1732)">Update probability </text><text fill="#3B3838" fill-opacity="1" font-family="Arial,Arial_MSFontService,sans-serif" font-style="normal" font-variant="normal" font-weight="400" font-stretch="normal" font-size="69" text-anchor="start" direction="ltr" writing-mode="lr-tb" unicode-bidi="normal" text-decoration="none" transform="matrix(1 0 0 1 1361.51 1814)">models</text><path d="M2428.5 608.168C2428.5 579.08 2452.08 555.5 2481.17 555.5L3228.83 555.5C3257.92 555.5 3281.5 579.08 3281.5 608.168L3281.5 818.831C3281.5 847.919 3257.92 871.499 3228.83 871.499L2481.17 871.499C2452.08 871.499 2428.5 847.919 2428.5 818.831Z" stroke="#808080" stroke-width="9.16667" stroke-linecap="butt" stroke-linejoin="miter" stroke-miterlimit="8" stroke-opacity="1" fill="#FFFFFF" fill-rule="evenodd" fill-opacity="1"/><text fill="#3B3838" fill-opacity="1" font-family="Arial,Arial_MSFontService,sans-serif" font-style="normal" font-variant="normal" font-weight="400" font-stretch="normal" font-size="69" text-anchor="start" direction="ltr" writing-mode="lr-tb" unicode-bidi="normal" text-decoration="none" transform="matrix(1 0 0 1 2655.44 697)">S</text><text fill="#3B3838" fill-opacity="1" font-family="Arial,Arial_MSFontService,sans-serif" font-style="normal" font-variant="normal" font-weight="400" font-stretch="normal" font-size="69" text-anchor="start" direction="ltr" writing-mode="lr-tb" unicode-bidi="normal" text-decoration="none" transform="matrix(1 0 0 1 2701.27 697)">uggest </text><text fill="#3B3838" fill-opacity="1" font-family="Arial,Arial_MSFontService,sans-serif" font-style="normal" font-variant="normal" font-weight="400" font-stretch="normal" font-size="69" text-anchor="start" direction="ltr" writing-mode="lr-tb" unicode-bidi="normal" text-decoration="none" transform="matrix(1 0 0 1 2927 697)">n</text><text fill="#3B3838" fill-opacity="1" font-family="Arial,Arial_MSFontService,sans-serif" font-style="normal" font-variant="normal" font-weight="400" font-stretch="normal" font-size="69" text-anchor="start" direction="ltr" writing-mode="lr-tb" unicode-bidi="normal" text-decoration="none" transform="matrix(1 0 0 1 2965.39 697)">ew </text><text fill="#3B3838" fill-opacity="1" font-family="Arial,Arial_MSFontService,sans-serif" font-style="normal" font-variant="normal" font-weight="400" font-stretch="normal" font-size="69" text-anchor="start" direction="ltr" writing-mode="lr-tb" unicode-bidi="normal" text-decoration="none" transform="matrix(1 0 0 1 2594.14 779)">hyperparameters</text><path d="M2428.5 1127C2428.5 1098.01 2452.01 1074.5 2481 1074.5L3229 1074.5C3257.99 1074.5 3281.5 1098.01 3281.5 1127L3281.5 1337C3281.5 1365.99 3257.99 1389.5 3229 1389.5L2481 1389.5C2452.01 1389.5 2428.5 1365.99 2428.5 1337Z" stroke="#808080" stroke-width="9.16667" stroke-linecap="butt" stroke-linejoin="miter" stroke-miterlimit="8" stroke-opacity="1" fill="#FFFFFF" fill-rule="evenodd" fill-opacity="1"/><text fill="#3B3838" fill-opacity="1" font-family="Arial,Arial_MSFontService,sans-serif" font-style="normal" font-variant="normal" font-weight="400" font-stretch="normal" font-size="69" text-anchor="start" direction="ltr" writing-mode="lr-tb" unicode-bidi="normal" text-decoration="none" transform="matrix(1 0 0 1 2552.03 1216)">Evaluate suggested </text><text fill="#3B3838" fill-opacity="1" font-family="Arial,Arial_MSFontService,sans-serif" font-style="normal" font-variant="normal" font-weight="400" font-stretch="normal" font-size="69" text-anchor="start" direction="ltr" writing-mode="lr-tb" unicode-bidi="normal" text-decoration="none" transform="matrix(1 0 0 1 2639.96 1298)">configurations</text><path d="M2428.5 2161.17C2428.5 2132.08 2452.08 2108.5 2481.17 2108.5L3228.83 2108.5C3257.92 2108.5 3281.5 2132.08 3281.5 2161.17L3281.5 2371.83C3281.5 2400.92 3257.92 2424.5 3228.83 2424.5L2481.17 2424.5C2452.08 2424.5 2428.5 2400.92 2428.5 2371.83Z" stroke="#808080" stroke-width="9.16667" stroke-linecap="butt" stroke-linejoin="miter" stroke-miterlimit="8" stroke-opacity="1" fill="#79AF97" fill-rule="evenodd" fill-opacity="0.2"/><text fill="#3B3838" fill-opacity="1" font-family="Arial,Arial_MSFontService,sans-serif" font-style="normal" font-variant="normal" font-weight="700" font-stretch="normal" font-size="69" text-anchor="start" direction="ltr" writing-mode="lr-tb" unicode-bidi="normal" text-decoration="none" transform="matrix(1 0 0 1 2672.91 2251)">Select best </text><text fill="#3B3838" fill-opacity="1" font-family="Arial,Arial_MSFontService,sans-serif" font-style="normal" font-variant="normal" font-weight="700" font-stretch="normal" font-size="69" text-anchor="start" direction="ltr" writing-mode="lr-tb" unicode-bidi="normal" text-decoration="none" transform="matrix(1 0 0 1 2574.94 2333)">hyperparameters</text><path d="M1478.08 871.5 1478.08 1051.8 1468.92 1051.8 1468.92 871.5ZM1487.25 1047.22 1473.5 1074.72 1459.75 1047.22Z" fill="#808080" fill-rule="nonzero" fill-opacity="1"/><path d="M0-4.58333 269.371-4.58333 269.371 1034.72 264.788 1030.13 506.659 1030.13 506.659 1039.3 260.204 1039.3 260.204 0 264.788 4.58333 0 4.58333ZM502.075 1020.97 529.575 1034.72 502.075 1048.47Z" fill="#808080" fill-rule="nonzero" fill-opacity="1" transform="matrix(1 0 0 -1 1899.5 1748.22)"/><path d="M2860.08 873.5 2860.08 1053.8 2850.92 1053.8 2850.92 873.5ZM2869.25 1049.22 2855.5 1076.72 2841.75 1049.22Z" fill="#808080" fill-rule="nonzero" fill-opacity="1"/><path d="M1478.08 1389.5 1478.08 1567.2 1468.92 1567.2 1468.92 1389.5ZM1487.25 1562.62 1473.5 1590.12 1459.75 1562.62Z" fill="#808080" fill-rule="nonzero" fill-opacity="1"/><path d="M1478.08 364.5 1478.08 532.466 1468.92 532.466 1468.92 364.5ZM1487.25 527.883 1473.5 555.383 1459.75 527.883Z" fill="#808080" fill-rule="nonzero" fill-opacity="1"/><path d="M2425.5 1643C2425.5 1614.01 2449.01 1590.5 2478 1590.5L3226 1590.5C3254.99 1590.5 3278.5 1614.01 3278.5 1643L3278.5 1853C3278.5 1881.99 3254.99 1905.5 3226 1905.5L2478 1905.5C2449.01 1905.5 2425.5 1881.99 2425.5 1853Z" stroke="#808080" stroke-width="9.16667" stroke-linecap="butt" stroke-linejoin="miter" stroke-miterlimit="8" stroke-opacity="1" fill="#FFFFFF" fill-rule="evenodd" fill-opacity="1"/><text fill="#3B3838" fill-opacity="1" font-family="Arial,Arial_MSFontService,sans-serif" font-style="normal" font-variant="normal" font-weight="400" font-stretch="normal" font-size="69" text-anchor="start" direction="ltr" writing-mode="lr-tb" unicode-bidi="normal" text-decoration="none" transform="matrix(1 0 0 1 2549.13 1732)">Evaluate suggested </text><text fill="#3B3838" fill-opacity="1" font-family="Arial,Arial_MSFontService,sans-serif" font-style="normal" font-variant="normal" font-weight="400" font-stretch="normal" font-size="69" text-anchor="start" direction="ltr" writing-mode="lr-tb" unicode-bidi="normal" text-decoration="none" transform="matrix(1 0 0 1 2637.06 1814)">configurations</text><path d="M2860.08 1392.5 2860.08 1572.8 2850.92 1572.8 2850.92 1392.5ZM2869.25 1568.22 2855.5 1595.72 2841.75 1568.22Z" fill="#808080" fill-rule="nonzero" fill-opacity="1"/><path d="M2860.08 1904.5 2860.08 2084.8 2850.92 2084.8 2850.92 1904.5ZM2869.25 2080.22 2855.5 2107.72 2841.75 2080.22Z" fill="#808080" fill-rule="nonzero" fill-opacity="1"/><path d="M3284.94 1735.11 3312.44 1735.11 3312.44 1744.28 3284.94 1744.28ZM3321.6 1735.11 3349.1 1735.11 3349.1 1744.28 3321.6 1744.28ZM3358.27 1735.11 3385.77 1735.11 3385.77 1744.28 3358.27 1744.28ZM3394.94 1735.11 3422.44 1735.11 3422.44 1744.28 3394.94 1744.28ZM3431.6 1735.11 3459.1 1735.11 3459.1 1744.28 3431.6 1744.28ZM3468.27 1735.11 3487.75 1735.11 3483.17 1739.69 3483.17 1731.67 3492.33 1731.67 3492.33 1744.28 3468.27 1744.28ZM3483.17 1722.51 3483.17 1695.01 3492.33 1695.01 3492.33 1722.51ZM3483.17 1685.84 3483.17 1658.34 3492.33 1658.34 3492.33 1685.84ZM3483.17 1649.17 3483.17 1621.67 3492.33 1621.67 3492.33 1649.17ZM3483.17 1612.51 3483.17 1585.01 3492.33 1585.01 3492.33 1612.51ZM3483.17 1575.84 3483.17 1548.34 3492.33 1548.34 3492.33 1575.84ZM3483.17 1539.17 3483.17 1511.67 3492.33 1511.67 3492.33 1539.17ZM3483.17 1502.51 3483.17 1475.01 3492.33 1475.01 3492.33 1502.51ZM3483.17 1465.84 3483.17 1438.34 3492.33 1438.34 3492.33 1465.84ZM3483.17 1429.17 3483.17 1401.67 3492.33 1401.67 3492.33 1429.17ZM3483.17 1392.51 3483.17 1365.01 3492.33 1365.01 3492.33 1392.51ZM3483.17 1355.84 3483.17 1328.34 3492.33 1328.34 3492.33 1355.84ZM3483.17 1319.17 3483.17 1291.67 3492.33 1291.67 3492.33 1319.17ZM3483.17 1282.51 3483.17 1255.01 3492.33 1255.01 3492.33 1282.51ZM3483.17 1245.84 3483.17 1218.34 3492.33 1218.34 3492.33 1245.84ZM3483.17 1209.17 3483.17 1181.67 3492.33 1181.67 3492.33 1209.17ZM3483.17 1172.51 3483.17 1145.01 3492.33 1145.01 3492.33 1172.51ZM3483.17 1135.84 3483.17 1108.34 3492.33 1108.34 3492.33 1135.84ZM3483.17 1099.17 3483.17 1071.67 3492.33 1071.67 3492.33 1099.17ZM3483.17 1062.51 3483.17 1035.01 3492.33 1035.01 3492.33 1062.51ZM3483.17 1025.84 3483.17 998.34 3492.33 998.34 3492.33 1025.84ZM3483.17 989.174 3483.17 961.674 3492.33 961.674 3492.33 989.174ZM3483.17 952.507 3483.17 925.007 3492.33 925.007 3492.33 952.507ZM3483.17 915.84 3483.17 888.34 3492.33 888.34 3492.33 915.84ZM3483.17 879.174 3483.17 851.674 3492.33 851.674 3492.33 879.174ZM3483.17 842.507 3483.17 815.007 3492.33 815.007 3492.33 842.507ZM3483.17 805.84 3483.17 778.34 3492.33 778.34 3492.33 805.84ZM3483.17 769.174 3483.17 741.674 3492.33 741.674 3492.33 769.174ZM3483.17 732.507 3483.17 713.5 3487.75 718.083 3479.26 718.083 3479.26 708.917 3492.33 708.917 3492.33 732.507ZM3470.09 718.083 3442.59 718.083 3442.59 708.917 3470.09 708.917ZM3433.42 718.083 3405.92 718.083 3405.92 708.917 3433.42 708.917ZM3396.76 718.083 3369.26 718.083 3369.26 708.917 3396.76 708.917ZM3360.09 718.083 3332.59 718.083 3332.59 708.917 3360.09 708.917ZM3323.42 718.083 3304.42 718.083 3304.42 708.917 3323.42 708.917ZM3309 727.25 3281.5 713.5 3309 699.75Z" fill="#7C7C7C" fill-rule="nonzero" fill-opacity="1"/></g></g></svg>