<svg width="4290" height="747" xmlns="http://www.w3.org/2000/svg" xmlns:xlink="http://www.w3.org/1999/xlink" xml:space="preserve" overflow="hidden"><g transform="translate(-55 -870)"><g><path d="M1794.89 886.208 2121.87 886.208 2121.87 1001.71 1794.89 1001.71Z" fill="#E3ECEF" fill-rule="evenodd" fill-opacity="1"/><path d="M2121.87 886.208 2448.85 886.208 2448.85 1001.71 2121.87 1001.71Z" fill="#E3ECEF" fill-rule="evenodd" fill-opacity="1"/><path d="M2448.85 886.208 2775.83 886.208 2775.83 1001.71 2448.85 1001.71Z" fill="#E3ECEF" fill-rule="evenodd" fill-opacity="1"/><path d="M2775.83 886.208 3102.81 886.208 3102.81 1001.71 2775.83 1001.71Z" fill="#E3ECEF" fill-rule="evenodd" fill-opacity="1"/><path d="M3102.81 886.208 3429.79 886.208 3429.79 1001.71 3102.81 1001.71Z" fill="#E3ECEF" fill-rule="evenodd" fill-opacity="1"/><path d="M1794.89 1001.71 2121.87 1001.71 2121.87 1117.21 1794.89 1117.21Z" fill="#E4F0EA" fill-rule="evenodd" fill-opacity="1"/><path d="M2121.87 1001.71 2448.85 1001.71 2448.85 1117.21 2121.87 1117.21Z" fill="#E4F0EA" fill-rule="evenodd" fill-opacity="1"/><path d="M2448.85 1001.71 2775.83 1001.71 2775.83 1117.21 2448.85 1117.21Z" fill="#E4F0EA" fill-rule="evenodd" fill-opacity="1"/><path d="M2775.83 1001.71 3102.81 1001.71 3102.81 1117.21 2775.83 1117.21Z" fill="#E4F0EA" fill-rule="evenodd" fill-opacity="1"/><path d="M3102.81 1001.71 3429.79 1001.71 3429.79 1117.21 3102.81 1117.21Z" fill="#F1DBDB" fill-rule="evenodd" fill-opacity="1"/><path d="M1794.89 1117.21 2121.87 1117.21 2121.87 1232.71 1794.89 1232.71Z" fill="#E4F0EA" fill-rule="evenodd" fill-opacity="1"/><path d="M2121.87 1117.21 2448.85 1117.21 2448.85 1232.71 2121.87 1232.71Z" fill="#E4F0EA" fill-rule="evenodd" fill-opacity="1"/><path d="M2448.85 1117.21 2775.83 1117.21 2775.83 1232.71 2448.85 1232.71Z" fill="#E4F0EA" fill-rule="evenodd" fill-opacity="1"/><path d="M2775.83 1117.21 3102.81 1117.21 3102.81 1232.71 2775.83 1232.71Z" fill="#F1DBDB" fill-rule="evenodd" fill-opacity="1"/><path d="M3102.81 1117.21 3429.79 1117.21 3429.79 1232.71 3102.81 1232.71Z" fill="#E4F0EA" fill-rule="evenodd" fill-opacity="1"/><path d="M1794.89 1232.71 2121.87 1232.71 2121.87 1348.21 1794.89 1348.21Z" fill="#E4F0EA" fill-rule="evenodd" fill-opacity="1"/><path d="M2121.87 1232.71 2448.85 1232.71 2448.85 1348.21 2121.87 1348.21Z" fill="#E4F0EA" fill-rule="evenodd" fill-opacity="1"/><path d="M2448.85 1232.71 2775.83 1232.71 2775.83 1348.21 2448.85 1348.21Z" fill="#F1DBDB" fill-rule="evenodd" fill-opacity="1"/><path d="M2775.83 1232.71 3102.81 1232.71 3102.81 1348.21 2775.83 1348.21Z" fill="#E4F0EA" fill-rule="evenodd" fill-opacity="1"/><path d="M3102.81 1232.71 3429.79 1232.71 3429.79 1348.21 3102.81 1348.21Z" fill="#E4F0EA" fill-rule="evenodd" fill-opacity="1"/><path d="M1794.89 1348.21 2121.87 1348.21 2121.87 1463.71 1794.89 1463.71Z" fill="#E4F0EA" fill-rule="evenodd" fill-opacity="1"/><path d="M2121.87 1348.21 2448.85 1348.21 2448.85 1463.71 2121.87 1463.71Z" fill="#F1DBDB" fill-rule="evenodd" fill-opacity="1"/><path d="M2448.85 1348.21 2775.83 1348.21 2775.83 1463.71 2448.85 1463.71Z" fill="#E4F0EA" fill-rule="evenodd" fill-opacity="1"/><path d="M2775.83 1348.21 3102.81 1348.21 3102.81 1463.71 2775.83 1463.71Z" fill="#E4F0EA" fill-rule="evenodd" fill-opacity="1"/><path d="M3102.81 1348.21 3429.79 1348.21 3429.79 1463.71 3102.81 1463.71Z" fill="#E4F0EA" fill-rule="evenodd" fill-opacity="1"/><path d="M1794.89 1463.71 2121.87 1463.71 2121.87 1579.21 1794.89 1579.21Z" fill="#F1DBDB" fill-rule="evenodd" fill-opacity="1"/><path d="M2121.87 1463.71 2448.85 1463.71 2448.85 1579.21 2121.87 1579.21Z" fill="#E4F0EA" fill-rule="evenodd" fill-opacity="1"/><path d="M2448.85 1463.71 2775.83 1463.71 2775.83 1579.21 2448.85 1579.21Z" fill="#E4F0EA" fill-rule="evenodd" fill-opacity="1"/><path d="M2775.83 1463.71 3102.81 1463.71 3102.81 1579.21 2775.83 1579.21Z" fill="#E4F0EA" fill-rule="evenodd" fill-opacity="1"/><path d="M3102.81 1463.71 3429.79 1463.71 3429.79 1579.21 3102.81 1579.21Z" fill="#E4F0EA" fill-rule="evenodd" fill-opacity="1"/><path d="M2121.87 886.208 2121.87 1579.21" stroke="#808080" stroke-width="4.58333" stroke-linecap="butt" stroke-linejoin="round" stroke-miterlimit="10" stroke-opacity="1" fill="none" fill-rule="evenodd"/><path d="M2448.85 886.208 2448.85 1579.21" stroke="#808080" stroke-width="4.58333" stroke-linecap="butt" stroke-linejoin="round" stroke-miterlimit="10" stroke-opacity="1" fill="none" fill-rule="evenodd"/><path d="M2775.83 886.208 2775.83 1579.21" stroke="#808080" stroke-width="4.58333" stroke-linecap="butt" stroke-linejoin="round" stroke-miterlimit="10" stroke-opacity="1" fill="none" fill-rule="evenodd"/><path d="M3102.81 886.208 3102.81 1579.21" stroke="#808080" stroke-width="4.58333" stroke-linecap="butt" stroke-linejoin="round" stroke-miterlimit="10" stroke-opacity="1" fill="none" fill-rule="evenodd"/><path d="M1794.89 1001.71 3429.79 1001.71" stroke="#808080" stroke-width="4.58333" stroke-linecap="butt" stroke-linejoin="round" stroke-miterlimit="10" stroke-opacity="1" fill="none" fill-rule="evenodd"/><path d="M1794.89 1117.21 3429.79 1117.21" stroke="#808080" stroke-width="4.58333" stroke-linecap="butt" stroke-linejoin="round" stroke-miterlimit="10" stroke-opacity="1" fill="none" fill-rule="evenodd"/><path d="M1794.89 1232.71 3429.79 1232.71" stroke="#808080" stroke-width="4.58333" stroke-linecap="butt" stroke-linejoin="round" stroke-miterlimit="10" stroke-opacity="1" fill="none" fill-rule="evenodd"/><path d="M1794.89 1348.21 3429.79 1348.21" stroke="#808080" stroke-width="4.58333" stroke-linecap="butt" stroke-linejoin="round" stroke-miterlimit="10" stroke-opacity="1" fill="none" fill-rule="evenodd"/><path d="M1794.89 1463.71 3429.79 1463.71" stroke="#808080" stroke-width="4.58333" stroke-linecap="butt" stroke-linejoin="round" stroke-miterlimit="10" stroke-opacity="1" fill="none" fill-rule="evenodd"/><text fill="#000000" fill-opacity="1" font-family="Arial,Arial_MSFontService,sans-serif" font-style="normal" font-variant="normal" font-weight="700" font-stretch="normal" font-size="69" text-anchor="start" direction="ltr" writing-mode="lr-tb" unicode-bidi="normal" text-decoration="none" transform="matrix(1 0 0 1 3146.27 970)">Fold 10</text><text fill="#000000" fill-opacity="1" font-family="Arial,Arial_MSFontService,sans-serif" font-style="normal" font-variant="normal" font-weight="700" font-stretch="normal" font-size="69" text-anchor="start" direction="ltr" writing-mode="lr-tb" unicode-bidi="normal" text-decoration="none" transform="matrix(1 0 0 1 2904.94 970)">…</text><text fill="#000000" fill-opacity="1" font-family="Arial,Arial_MSFontService,sans-serif" font-style="normal" font-variant="normal" font-weight="700" font-stretch="normal" font-size="69" text-anchor="start" direction="ltr" writing-mode="lr-tb" unicode-bidi="normal" text-decoration="none" transform="matrix(1 0 0 1 2511.5 970)">Fold 3</text><text fill="#000000" fill-opacity="1" font-family="Arial,Arial_MSFontService,sans-serif" font-style="normal" font-variant="normal" font-weight="700" font-stretch="normal" font-size="69" text-anchor="start" direction="ltr" writing-mode="lr-tb" unicode-bidi="normal" text-decoration="none" transform="matrix(1 0 0 1 2184.52 970)">Fold 2</text><text fill="#000000" fill-opacity="1" font-family="Arial,Arial_MSFontService,sans-serif" font-style="normal" font-variant="normal" font-weight="700" font-stretch="normal" font-size="69" text-anchor="start" direction="ltr" writing-mode="lr-tb" unicode-bidi="normal" text-decoration="none" transform="matrix(1 0 0 1 1857.54 970)">Fold 1</text><text fill="#000000" fill-opacity="1" font-family="Arial,Arial_MSFontService,sans-serif" font-style="normal" font-variant="normal" font-weight="400" font-stretch="normal" font-size="69" text-anchor="start" direction="ltr" writing-mode="lr-tb" unicode-bidi="normal" text-decoration="none" transform="matrix(1 0 0 1 3203.37 1085)">Test</text><text fill="#000000" fill-opacity="1" font-family="Arial,Arial_MSFontService,sans-serif" font-style="normal" font-variant="normal" font-weight="400" font-stretch="normal" font-size="69" text-anchor="start" direction="ltr" writing-mode="lr-tb" unicode-bidi="normal" text-decoration="none" transform="matrix(1 0 0 1 2904.94 1085)">…</text><text fill="#000000" fill-opacity="1" font-family="Arial,Arial_MSFontService,sans-serif" font-style="normal" font-variant="normal" font-weight="400" font-stretch="normal" font-size="69" text-anchor="start" direction="ltr" writing-mode="lr-tb" unicode-bidi="normal" text-decoration="none" transform="matrix(1 0 0 1 2535.12 1085)">Train</text><text fill="#000000" fill-opacity="1" font-family="Arial,Arial_MSFontService,sans-serif" font-style="normal" font-variant="normal" font-weight="400" font-stretch="normal" font-size="69" text-anchor="start" direction="ltr" writing-mode="lr-tb" unicode-bidi="normal" text-decoration="none" transform="matrix(1 0 0 1 2208.14 1085)">Train</text><text fill="#000000" fill-opacity="1" font-family="Arial,Arial_MSFontService,sans-serif" font-style="normal" font-variant="normal" font-weight="400" font-stretch="normal" font-size="69" text-anchor="start" direction="ltr" writing-mode="lr-tb" unicode-bidi="normal" text-decoration="none" transform="matrix(1 0 0 1 1881.16 1085)">Train</text><text fill="#000000" fill-opacity="1" font-family="Arial,Arial_MSFontService,sans-serif" font-style="normal" font-variant="normal" font-weight="400" font-stretch="normal" font-size="69" text-anchor="start" direction="ltr" writing-mode="lr-tb" unicode-bidi="normal" text-decoration="none" transform="matrix(1 0 0 1 3189.08 1201)">Train</text><text fill="#000000" fill-opacity="1" font-family="Arial,Arial_MSFontService,sans-serif" font-style="normal" font-variant="normal" font-weight="400" font-stretch="normal" font-size="69" text-anchor="start" direction="ltr" writing-mode="lr-tb" unicode-bidi="normal" text-decoration="none" transform="matrix(1 0 0 1 2904.94 1201)">…</text><text fill="#000000" fill-opacity="1" font-family="Arial,Arial_MSFontService,sans-serif" font-style="normal" font-variant="normal" font-weight="400" font-stretch="normal" font-size="69" text-anchor="start" direction="ltr" writing-mode="lr-tb" unicode-bidi="normal" text-decoration="none" transform="matrix(1 0 0 1 2535.12 1201)">Train</text><text fill="#000000" fill-opacity="1" font-family="Arial,Arial_MSFontService,sans-serif" font-style="normal" font-variant="normal" font-weight="400" font-stretch="normal" font-size="69" text-anchor="start" direction="ltr" writing-mode="lr-tb" unicode-bidi="normal" text-decoration="none" transform="matrix(1 0 0 1 2208.14 1201)">Train</text><text fill="#000000" fill-opacity="1" font-family="Arial,Arial_MSFontService,sans-serif" font-style="normal" font-variant="normal" font-weight="400" font-stretch="normal" font-size="69" text-anchor="start" direction="ltr" writing-mode="lr-tb" unicode-bidi="normal" text-decoration="none" transform="matrix(1 0 0 1 1881.16 1201)">Train</text><text fill="#000000" fill-opacity="1" font-family="Arial,Arial_MSFontService,sans-serif" font-style="normal" font-variant="normal" font-weight="400" font-stretch="normal" font-size="69" text-anchor="start" direction="ltr" writing-mode="lr-tb" unicode-bidi="normal" text-decoration="none" transform="matrix(1 0 0 1 3189.08 1316)">Train</text><text fill="#000000" fill-opacity="1" font-family="Arial,Arial_MSFontService,sans-serif" font-style="normal" font-variant="normal" font-weight="400" font-stretch="normal" font-size="69" text-anchor="start" direction="ltr" writing-mode="lr-tb" unicode-bidi="normal" text-decoration="none" transform="matrix(1 0 0 1 2904.94 1316)">…</text><text fill="#000000" fill-opacity="1" font-family="Arial,Arial_MSFontService,sans-serif" font-style="normal" font-variant="normal" font-weight="400" font-stretch="normal" font-size="69" text-anchor="start" direction="ltr" writing-mode="lr-tb" unicode-bidi="normal" text-decoration="none" transform="matrix(1 0 0 1 2549.41 1316)">Test</text><text fill="#000000" fill-opacity="1" font-family="Arial,Arial_MSFontService,sans-serif" font-style="normal" font-variant="normal" font-weight="400" font-stretch="normal" font-size="69" text-anchor="start" direction="ltr" writing-mode="lr-tb" unicode-bidi="normal" text-decoration="none" transform="matrix(1 0 0 1 2208.14 1316)">Train</text><text fill="#000000" fill-opacity="1" font-family="Arial,Arial_MSFontService,sans-serif" font-style="normal" font-variant="normal" font-weight="400" font-stretch="normal" font-size="69" text-anchor="start" direction="ltr" writing-mode="lr-tb" unicode-bidi="normal" text-decoration="none" transform="matrix(1 0 0 1 1881.16 1316)">Train</text><text fill="#000000" fill-opacity="1" font-family="Arial,Arial_MSFontService,sans-serif" font-style="normal" font-variant="normal" font-weight="400" font-stretch="normal" font-size="69" text-anchor="start" direction="ltr" writing-mode="lr-tb" unicode-bidi="normal" text-decoration="none" transform="matrix(1 0 0 1 3189.08 1432)">Train</text><text fill="#000000" fill-opacity="1" font-family="Arial,Arial_MSFontService,sans-serif" font-style="normal" font-variant="normal" font-weight="400" font-stretch="normal" font-size="69" text-anchor="start" direction="ltr" writing-mode="lr-tb" unicode-bidi="normal" text-decoration="none" transform="matrix(1 0 0 1 2904.94 1432)">…</text><text fill="#000000" fill-opacity="1" font-family="Arial,Arial_MSFontService,sans-serif" font-style="normal" font-variant="normal" font-weight="400" font-stretch="normal" font-size="69" text-anchor="start" direction="ltr" writing-mode="lr-tb" unicode-bidi="normal" text-decoration="none" transform="matrix(1 0 0 1 2535.12 1432)">Train</text><text fill="#000000" fill-opacity="1" font-family="Arial,Arial_MSFontService,sans-serif" font-style="normal" font-variant="normal" font-weight="400" font-stretch="normal" font-size="69" text-anchor="start" direction="ltr" writing-mode="lr-tb" unicode-bidi="normal" text-decoration="none" transform="matrix(1 0 0 1 2222.43 1432)">Test</text><text fill="#000000" fill-opacity="1" font-family="Arial,Arial_MSFontService,sans-serif" font-style="normal" font-variant="normal" font-weight="400" font-stretch="normal" font-size="69" text-anchor="start" direction="ltr" writing-mode="lr-tb" unicode-bidi="normal" text-decoration="none" transform="matrix(1 0 0 1 1881.16 1432)">Train</text><text fill="#000000" fill-opacity="1" font-family="Arial,Arial_MSFontService,sans-serif" font-style="normal" font-variant="normal" font-weight="400" font-stretch="normal" font-size="69" text-anchor="start" direction="ltr" writing-mode="lr-tb" unicode-bidi="normal" text-decoration="none" transform="matrix(1 0 0 1 3189.08 1547)">Train</text><text fill="#000000" fill-opacity="1" font-family="Arial,Arial_MSFontService,sans-serif" font-style="normal" font-variant="normal" font-weight="400" font-stretch="normal" font-size="69" text-anchor="start" direction="ltr" writing-mode="lr-tb" unicode-bidi="normal" text-decoration="none" transform="matrix(1 0 0 1 2904.94 1547)">…</text><text fill="#000000" fill-opacity="1" font-family="Arial,Arial_MSFontService,sans-serif" font-style="normal" font-variant="normal" font-weight="400" font-stretch="normal" font-size="69" text-anchor="start" direction="ltr" writing-mode="lr-tb" unicode-bidi="normal" text-decoration="none" transform="matrix(1 0 0 1 2535.12 1547)">Train</text><text fill="#000000" fill-opacity="1" font-family="Arial,Arial_MSFontService,sans-serif" font-style="normal" font-variant="normal" font-weight="400" font-stretch="normal" font-size="69" text-anchor="start" direction="ltr" writing-mode="lr-tb" unicode-bidi="normal" text-decoration="none" transform="matrix(1 0 0 1 2208.14 1547)">Train</text><text fill="#000000" fill-opacity="1" font-family="Arial,Arial_MSFontService,sans-serif" font-style="normal" font-variant="normal" font-weight="400" font-stretch="normal" font-size="69" text-anchor="start" direction="ltr" writing-mode="lr-tb" unicode-bidi="normal" text-decoration="none" transform="matrix(1 0 0 1 1895.45 1547)">Test</text><path d="M61.5 1124.33C61.5 1095.15 85.1549 1071.5 114.335 1071.5L646.665 1071.5C675.845 1071.5 699.5 1095.15 699.5 1124.33L699.5 1335.67C699.5 1364.85 675.845 1388.5 646.665 1388.5L114.335 1388.5C85.1549 1388.5 61.5 1364.85 61.5 1335.67Z" stroke="#808080" stroke-width="9.16667" stroke-linecap="butt" stroke-linejoin="miter" stroke-miterlimit="8" stroke-opacity="1" fill="#FFFFFF" fill-rule="evenodd" fill-opacity="1"/><text fill="#000000" fill-opacity="1" font-family="Arial,Arial_MSFontService,sans-serif" font-style="normal" font-variant="normal" font-weight="400" font-stretch="normal" font-size="69" text-anchor="start" direction="ltr" writing-mode="lr-tb" unicode-bidi="normal" text-decoration="none" transform="matrix(1 0 0 1 169.313 1255)">Data </text><text fill="#000000" fill-opacity="1" font-family="Arial,Arial_MSFontService,sans-serif" font-style="normal" font-variant="normal" font-weight="400" font-stretch="normal" font-size="69" text-anchor="start" direction="ltr" writing-mode="lr-tb" unicode-bidi="normal" text-decoration="none" transform="matrix(1 0 0 1 333.74 1255)">cleaning</text><path d="M878.5 1124.33C878.5 1095.15 902.155 1071.5 931.335 1071.5L1463.67 1071.5C1492.85 1071.5 1516.5 1095.15 1516.5 1124.33L1516.5 1335.67C1516.5 1364.85 1492.85 1388.5 1463.67 1388.5L931.335 1388.5C902.155 1388.5 878.5 1364.85 878.5 1335.67Z" stroke="#808080" stroke-width="9.16667" stroke-linecap="butt" stroke-linejoin="miter" stroke-miterlimit="8" stroke-opacity="1" fill="#FFFFFF" fill-rule="evenodd" fill-opacity="1"/><text fill="#000000" fill-opacity="1" font-family="Arial,Arial_MSFontService,sans-serif" font-style="normal" font-variant="normal" font-weight="400" font-stretch="normal" font-size="69" text-anchor="start" direction="ltr" writing-mode="lr-tb" unicode-bidi="normal" text-decoration="none" transform="matrix(1 0 0 1 1078.45 1214)">Feature </text><text fill="#000000" fill-opacity="1" font-family="Arial,Arial_MSFontService,sans-serif" font-style="normal" font-variant="normal" font-weight="400" font-stretch="normal" font-size="69" text-anchor="start" direction="ltr" writing-mode="lr-tb" unicode-bidi="normal" text-decoration="none" transform="matrix(1 0 0 1 1047.81 1296)">extraction</text><path d="M3701.5 1123.5C3701.5 1094.23 3725.23 1070.5 3754.5 1070.5L4286.5 1070.5C4315.77 1070.5 4339.5 1094.23 4339.5 1123.5L4339.5 1335.5C4339.5 1364.77 4315.77 1388.5 4286.5 1388.5L3754.5 1388.5C3725.23 1388.5 3701.5 1364.77 3701.5 1335.5Z" stroke="#808080" stroke-width="9.16667" stroke-linecap="butt" stroke-linejoin="miter" stroke-miterlimit="8" stroke-opacity="1" fill="#FFFFFF" fill-rule="evenodd" fill-opacity="1"/><text fill="#000000" fill-opacity="1" font-family="Arial,Arial_MSFontService,sans-serif" font-style="normal" font-variant="normal" font-weight="400" font-stretch="normal" font-size="69" text-anchor="start" direction="ltr" writing-mode="lr-tb" unicode-bidi="normal" text-decoration="none" transform="matrix(1 0 0 1 3759.46 1214)">Normalization </text><text fill="#000000" fill-opacity="1" font-family="Arial,Arial_MSFontService,sans-serif" font-style="normal" font-variant="normal" font-weight="400" font-stretch="normal" font-size="69" text-anchor="start" direction="ltr" writing-mode="lr-tb" unicode-bidi="normal" text-decoration="none" transform="matrix(1 0 0 1 4200.04 1214)">for </text><text fill="#000000" fill-opacity="1" font-family="Arial,Arial_MSFontService,sans-serif" font-style="normal" font-variant="normal" font-weight="400" font-stretch="normal" font-size="69" text-anchor="start" direction="ltr" writing-mode="lr-tb" unicode-bidi="normal" text-decoration="none" transform="matrix(1 0 0 1 3880.05 1295)">e</text><text fill="#000000" fill-opacity="1" font-family="Arial,Arial_MSFontService,sans-serif" font-style="normal" font-variant="normal" font-weight="400" font-stretch="normal" font-size="69" text-anchor="start" direction="ltr" writing-mode="lr-tb" unicode-bidi="normal" text-decoration="none" transform="matrix(1 0 0 1 3918.44 1295)">ach </text><text fill="#000000" fill-opacity="1" font-family="Arial,Arial_MSFontService,sans-serif" font-style="normal" font-variant="normal" font-weight="400" font-stretch="normal" font-size="69" text-anchor="start" direction="ltr" writing-mode="lr-tb" unicode-bidi="normal" text-decoration="none" transform="matrix(1 0 0 1 4048.49 1295)">f</text><text fill="#000000" fill-opacity="1" font-family="Arial,Arial_MSFontService,sans-serif" font-style="normal" font-variant="normal" font-weight="400" font-stretch="normal" font-size="69" text-anchor="start" direction="ltr" writing-mode="lr-tb" unicode-bidi="normal" text-decoration="none" transform="matrix(1 0 0 1 4067.39 1295)">old</text><path d="M699.5 1224.92 869.984 1224.92 869.984 1234.08 699.5 1234.08ZM844.793 1209.5 879.08 1229.5 844.793 1249.5C842.607 1250.78 839.8 1250.04 838.525 1247.85 837.249 1245.67 837.988 1242.86 840.174 1241.58L867.674 1225.54 867.674 1233.46 840.174 1217.42C837.988 1216.14 837.249 1213.34 838.525 1211.15 839.8 1208.96 842.607 1208.22 844.793 1209.5Z" fill="#808080" fill-rule="nonzero" fill-opacity="1"/><path d="M1516.55 1224.92 1786.63 1228.11 1786.53 1237.27 1516.45 1234.08ZM1761.63 1212.39 1795.67 1232.8 1761.15 1252.39C1758.95 1253.64 1756.15 1252.87 1754.9 1250.67 1753.66 1248.47 1754.43 1245.67 1756.63 1244.42L1784.32 1228.7 1784.22 1236.62 1756.91 1220.25C1754.74 1218.95 1754.04 1216.14 1755.34 1213.97 1756.64 1211.8 1759.45 1211.09 1761.63 1212.39Z" fill="#808080" fill-rule="nonzero" fill-opacity="1"/><path d="M0.0627171-4.5829 262.377-0.99313 262.252 8.17268-0.0627171 4.5829ZM237.399-16.7537 271.409 3.71424 236.852 23.2438 236.852 23.2438C234.648 24.4893 231.852 23.7124 230.607 21.5086 229.361 19.3049 230.138 16.5088 232.342 15.2634L232.342 15.2634 260.059-0.400454 259.95 7.51678 232.672-8.89969C230.504-10.2049 229.804-13.0212 231.109-15.1901 232.414-17.3589 235.23-18.059 237.399-16.7537Z" fill="#808080" fill-rule="nonzero" fill-opacity="1" transform="matrix(1 0 0 -1 3430.5 1233.21)"/><path d="M1793.5 915.285C1793.5 894.417 1810.42 877.5 1831.28 877.5L3393.72 877.5C3414.58 877.5 3431.5 894.417 3431.5 915.285L3431.5 1536.72C3431.5 1557.58 3414.58 1574.5 3393.72 1574.5L1831.28 1574.5C1810.42 1574.5 1793.5 1557.58 1793.5 1536.72Z" stroke="#808080" stroke-width="9.16667" stroke-linecap="butt" stroke-linejoin="miter" stroke-miterlimit="8" stroke-opacity="1" fill="none" fill-rule="evenodd"/><path d="M1793.5 997.5 3431.49 997.5" stroke="#808080" stroke-width="9.16667" stroke-linecap="butt" stroke-linejoin="miter" stroke-miterlimit="8" stroke-opacity="1" fill="none" fill-rule="evenodd"/><path d="M1790.54 1569.14 1790.8 1569.69 1791.03 1570.11 1791.29 1570.54 1791.29 1570.54C1791.67 1571.17 1792.2 1571.69 1792.84 1572.07L1793.19 1572.27 1792.98 1572.14 1793.32 1572.37 1793.47 1572.47 1793.81 1572.67 1792.92 1571.96 1793.19 1572.24 1792.91 1571.92 1793.14 1572.21 1793.37 1572.48 1793.61 1572.73 1792.97 1571.85 1793.14 1572.17 1793.62 1572.86 1793.85 1573.14 1794.3 1573.6 1794.56 1573.83 1793.92 1573.13 1794.14 1573.43 1795.12 1574.4 1795.4 1574.6 1794.71 1573.98 1794.9 1574.2 1795.06 1574.36 1795.24 1574.54 1795.33 1574.63 1795.5 1574.8 1795.46 1574.75 1795.63 1574.92 1795.67 1574.96 1795.85 1575.13 1795.97 1575.24 1796.16 1575.41 1796.71 1575.82 1796.98 1575.99 1796.5 1575.64 1796.79 1575.88 1796.92 1575.99 1797.28 1576.27 1797.19 1576.2 1797.53 1576.48 1797.3 1576.28 1797.57 1576.54 1798.13 1576.98 1798.39 1577.16 1798.68 1577.34 1798.95 1577.5 1798.38 1577.11 1798.67 1577.34 1799.41 1577.83 1799.78 1578.01 1798.76 1577.29 1799.04 1577.56 1798.38 1576.77 1798.55 1577.03 1798.35 1576.69 1798.49 1576.95 1798.12 1576.02 1798.21 1576.36 1798.79 1577.65 1798.96 1577.9 1798.91 1577.82 1799.08 1578.09 1799.33 1578.45 1799.5 1578.66 1799.55 1578.73 1799.71 1578.92 1799.65 1578.84 1799.79 1579.03 1799.64 1578.82 1799.78 1579.03 1799.56 1578.67 1799.79 1579.08 1799.78 1579.07 1800.08 1579.6 1799.82 1579.04 1800.06 1579.67 1800.25 1580.1 1800.53 1580.66 1800.15 1579.58 1800.23 1579.95 1800.18 1579.69 1800.2 1579.83 1800.2 1579.83C1800.58 1582.27 1802.86 1583.94 1805.3 1583.56 1807.73 1583.19 1809.41 1580.91 1809.03 1578.47 1808.69 1576.25 1806.75 1574.63 1804.5 1574.69L1804.23 1574.69 1805.32 1574.8 1805.03 1574.73 1805.89 1575.02 1805.5 1574.84 1806.58 1575.53 1806.33 1575.31 1806.47 1575.44 1806.21 1575.19 1806.02 1575.03 1805.76 1574.81 1804.92 1574.26 1804.6 1574.09 1803.76 1573.77 1803.45 1573.68 1803.42 1573.67 1803.1 1573.59 1803.81 1573.85 1803.46 1573.68 1802.96 1573.49 1802.59 1573.37 1802.57 1573.36 1802.18 1573.24 1803.04 1573.61 1802.74 1573.44 1802.42 1573.28 1802.16 1573.16 1802.33 1573.24 1802.09 1573.11 1801.51 1572.87 1801.22 1572.76 1800 1572.52 1799.52 1572.49 1799.26 1572.48 1798.72 1572.48 1798.18 1572.48 1797.73 1572.48 1799.19 1572.73 1798.91 1572.63 1799.57 1572.92 1799.35 1572.8 1799.26 1572.76 1799.02 1572.63 1799.88 1573.21 1799.69 1573.05 1799.69 1573.05C1799.17 1572.6 1798.55 1572.28 1797.89 1572.11L1797.56 1572.03 1798.4 1572.33 1798.02 1572.15 1797.98 1572.14 1797.58 1571.95 1797.54 1571.93 1797.06 1571.71 1797.82 1572.15 1797.45 1571.88 1797.2 1571.72 1796.99 1571.58 1797.78 1572.21 1797.63 1572.06 1797.63 1572.06C1795.89 1570.32 1793.06 1570.32 1791.31 1572.06 1789.57 1573.81 1789.57 1576.63 1791.31 1578.38 1791.31 1578.38 1791.31 1578.38 1791.31 1578.38L1791.46 1578.52 1792.24 1579.15 1792.46 1579.28 1792.21 1579.12 1792.58 1579.38 1793.34 1579.83 1793.82 1580.05 1793.78 1580.03 1794.18 1580.22 1794.14 1580.2 1794.52 1580.38 1795.36 1580.69 1795.69 1580.77 1793.89 1579.84 1794.08 1580 1794.94 1580.58 1795.18 1580.7 1795.1 1580.66 1795.32 1580.78 1795.98 1581.07 1796.26 1581.17 1797.73 1581.41 1798.18 1581.41 1798.72 1581.41 1799.26 1581.41 1799 1581.41 1799.47 1581.43 1798.26 1581.19 1798.55 1581.29 1797.98 1581.05 1798.22 1581.17 1798.38 1581.25 1798.64 1581.37 1798.32 1581.21 1798.62 1581.38 1799.48 1581.75 1799.87 1581.87 1799.85 1581.87 1800.22 1581.99 1799.73 1581.8 1800.08 1581.96 1800.79 1582.22 1801.11 1582.3 1801.08 1582.29 1801.38 1582.38 1800.54 1582.05 1800.87 1582.22 1800.03 1581.66 1800.29 1581.88 1800.11 1581.72 1800.37 1581.96 1800.51 1582.09 1800.76 1582.31 1801.85 1582.99 1802.24 1583.17 1803.1 1583.45 1803.38 1583.52 1804.46 1583.62 1804.73 1583.61 1804.73 1583.61C1807.2 1583.55 1809.14 1581.5 1809.08 1579.03 1809.08 1578.84 1809.06 1578.66 1809.03 1578.47L1809.01 1578.32 1808.96 1578.06 1808.88 1577.68 1808.49 1576.6 1808.21 1576.05 1808.4 1576.48 1808.16 1575.85 1807.89 1575.28 1807.6 1574.74 1807.59 1574.73 1807.36 1574.32 1807.14 1573.96 1806.99 1573.75 1806.84 1573.54 1806.7 1573.36 1806.64 1573.29 1806.49 1573.1 1806.54 1573.16 1806.38 1572.96 1806.63 1573.32 1806.46 1573.04 1806.41 1572.96 1806.24 1572.71 1806.82 1573.99 1806.73 1573.65 1806.35 1572.72 1806.21 1572.45 1806.01 1572.11 1805.84 1571.86 1805.18 1571.07 1804.9 1570.81 1803.88 1570.08 1803.52 1569.89 1804.26 1570.38 1803.97 1570.14 1803.4 1569.75 1803.13 1569.6 1803.42 1569.78 1803.16 1569.61 1803.72 1570.05 1803.45 1569.8 1803.22 1569.6 1802.88 1569.31 1802.79 1569.24 1802.43 1568.96 1802.56 1569.07 1802.28 1568.82 1801.79 1568.47 1801.52 1568.29 1802.06 1568.7 1801.87 1568.53 1801.99 1568.64 1801.82 1568.48 1801.86 1568.52 1801.69 1568.35 1801.64 1568.31 1801.46 1568.14 1801.55 1568.23 1801.38 1568.05 1801.54 1568.22 1801.34 1568 1800.65 1567.38 1800.37 1567.18 1801.35 1568.15 1801.13 1567.86 1800.5 1567.16 1800.24 1566.93 1800.69 1567.39 1800.46 1567.11 1800.94 1567.81 1800.76 1567.5 1800.12 1566.62 1799.89 1566.37 1800.12 1566.64 1799.9 1566.36 1799.61 1566.03 1799.34 1565.76 1798.46 1565.05 1798.13 1564.84 1798.28 1564.94 1797.94 1564.71 1797.72 1564.58 1797.37 1564.37 1798.92 1565.9 1798.66 1565.47 1798.88 1565.89 1798.62 1565.34 1798.62 1565.34C1797.57 1563.11 1794.91 1562.15 1792.68 1563.2 1790.45 1564.25 1789.49 1566.91 1790.54 1569.14 1790.54 1569.14 1790.54 1569.14 1790.54 1569.14Z" fill="#FFFFFF" fill-rule="nonzero" fill-opacity="1"/><circle cx="1791.48" cy="1563.47" r="4.46601" fill="#FFFFFF" fill-opacity="1"/><circle cx="1792.26" cy="1563.86" r="4.46601" fill="#FFFFFF" fill-opacity="1"/><circle cx="1805.52" cy="1576.33" r="4.46601" fill="#FFFFFF" fill-opacity="1"/><circle cx="1807.46" cy="1577.89" r="4.46601" fill="#FFFFFF" fill-opacity="1"/><circle cx="3407.7" cy="1602.32" r="4.46601" fill="#FFFFFF" fill-opacity="1"/><circle cx="3425.76" cy="1572.7" r="4.46601" fill="#FFFFFF" fill-opacity="1"/><path d="M3416.38 1570.93 3415.45 1571.25 3415.12 1571.37 3414.26 1571.74 3414.21 1571.77 3413.66 1572.01 3413.77 1571.97 3413.28 1572.17 3413.36 1572.14 3413.11 1572.23 3414.75 1571.92 3414.59 1571.92 3414.59 1571.92C3412.12 1571.92 3410.12 1573.92 3410.12 1576.39 3410.12 1578.85 3412.12 1580.85 3414.59 1580.85L3414.75 1580.85 3416.38 1580.54 3416.63 1580.45 3416.7 1580.42 3417.19 1580.22 3417.29 1580.17 3417.84 1579.93 3417.78 1579.95 3418.65 1579.58 3418.32 1579.71 3419.24 1579.4 3419.24 1579.4C3421.58 1578.61 3422.83 1576.07 3422.04 1573.74 3421.25 1571.4 3418.72 1570.14 3416.38 1570.93 3416.38 1570.93 3416.38 1570.93 3416.38 1570.93Z" fill="#FFFFFF" fill-rule="nonzero" fill-opacity="1"/><path d="M3428.09 1574.94 3428.47 1574.5 3428.16 1574.81 3428.56 1574.44 3429.24 1573.64 3429.44 1573.34 3429.42 1573.37 3429.62 1573.06 3428.79 1573.98 3429.04 1573.78 3430.1 1572.47 3430.25 1572.18 3430.3 1572.09 3430.44 1571.82 3430.41 1571.88 3430.58 1571.55 3430.56 1571.58 3430.75 1571.24 3430.54 1571.59 3430.75 1571.27 3430.66 1571.4 3430.91 1571.05 3430.71 1571.31 3430.99 1570.97 3431.32 1570.52 3431.58 1570.11 3431.7 1569.92 3431.92 1569.53 3431.53 1570.11 3431.83 1569.73 3431.1 1570.46 3431.45 1570.18 3431.03 1570.48 3431.47 1570.21 3430.68 1570.59 3431 1570.47 3431.27 1570.36 3431.45 1570.28 3431.45 1570.28C3433.71 1569.28 3434.72 1566.63 3433.71 1564.38 3432.71 1562.13 3430.07 1561.12 3427.82 1562.12 3427.82 1562.12 3427.82 1562.12 3427.82 1562.12L3427.63 1562.2 3427.9 1562.09 3427.58 1562.21 3426.8 1562.59 3426.36 1562.86 3425.93 1563.16 3425.57 1563.44 3424.84 1564.17 3424.54 1564.54 3424.16 1565.12 3423.94 1565.5 3424.06 1565.3 3423.8 1565.71 3424.12 1565.26 3423.84 1565.6 3423.64 1565.86 3423.39 1566.21 3423.3 1566.34 3423.08 1566.67 3422.87 1567.02 3422.69 1567.36 3422.67 1567.4 3422.5 1567.73 3422.47 1567.79 3422.33 1568.06 3422.38 1567.97 3422.22 1568.25 3423.28 1566.95 3423.04 1567.15 3422.21 1568.08 3422 1568.39 3421.98 1568.42 3421.78 1568.73 3422.45 1567.93 3422.06 1568.3 3421.75 1568.62 3421.36 1569.06 3421.36 1569.06C3419.74 1570.91 3419.93 1573.73 3421.78 1575.36 3423.64 1576.98 3426.46 1576.8 3428.08 1574.94 3428.08 1574.94 3428.09 1574.94 3428.09 1574.94Z" fill="#FFFFFF" fill-rule="nonzero" fill-opacity="1"/><circle cx="3428.23" cy="1568.54" r="4.46601" fill="#FFFFFF" fill-opacity="1"/><circle cx="3431.61" cy="1563.73" r="4.46601" fill="#FFFFFF" fill-opacity="1"/><circle cx="3421.48" cy="1572.44" r="4.46601" fill="#FFFFFF" fill-opacity="1"/><circle cx="3436.94" cy="1563.73" r="4.46601" fill="#FFFFFF" fill-opacity="1"/></g></g></svg>